<svg xmlns="http://www.w3.org/2000/svg" viewBox="0 0 450.36 164.7"><title>Recurso 7</title><g id="Capa_2" data-name="Capa 2"><g id="Capa_1-2" data-name="Capa 1"><path d="M276.8,130.75a20.54,20.54,0,0,0,6.78,7.12,55.73,55.73,0,0,0,9.11,5,134.15,134.15,0,0,0,20.05,6.84,333.88,333.88,0,0,0,41.95,7.84c14.14,1.82,28.36,3.06,42.59,3.88,3.56.21,7.13.39,10.69.54s7.06.18,10.59.13c7.07-.12,14.15-.57,21.17-1.32a165.17,165.17,0,0,0,20.72-3.4,41.2,41.2,0,0,0,9.25-3.21,7.66,7.66,0,0,0,1.57-1.11,1.35,1.35,0,0,0,.48-.71,1.33,1.33,0,0,0-.4-.57,7.89,7.89,0,0,0-1.58-1.16,49.74,49.74,0,0,0-9.58-3.87c-3.44-1.07-7-2-10.54-2.89-7.12-1.73-14.35-3.19-21.61-4.51-29.17-4.93-58.34-8.25-87.83-10.46-29.41-1.82-58.73-2.45-88.19-2.11q-44.11,1-88.05,4.43c-29.42,2.53-58.72,5.93-88,9.59-7.36.91-14.73,1.86-22.15,2.63-3.72.39-7.44.75-11.2,1-1.88.12-3.77.22-5.69.24a31.32,31.32,0,0,1-5.95-.38,6.57,6.57,0,0,1-3.33-1.47A3.24,3.24,0,0,1,27,142a2.91,2.91,0,0,1-.32-1,4.15,4.15,0,0,1,.15-1.75,12.2,12.2,0,0,1,3.31-4.9,45.06,45.06,0,0,1,9.25-6.6A117.71,117.71,0,0,1,60.32,119c.12.28.18.42.31.7-3.49,1.4-6.92,2.9-10.25,4.54a99.57,99.57,0,0,0-9.66,5.29A40.79,40.79,0,0,0,32.56,136a9,9,0,0,0-2.25,3.68,1.32,1.32,0,0,0,0,.65.22.22,0,0,0,.05.12.63.63,0,0,0,.12.11A3.8,3.8,0,0,0,32,141a53.83,53.83,0,0,0,10.47-.42c3.63-.4,7.28-.91,10.93-1.45q11-1.67,21.93-3.45c29.26-4.68,58.53-8.77,88-11.84,29.51-2.71,59-4.25,88.6-4.62,29.66,0,59.16,1.23,88.73,3.45,29.68,2.64,59,6.32,88.36,11.66,7.32,1.42,14.63,3,21.91,4.85,3.64.94,7.27,2,10.88,3.13a54.67,54.67,0,0,1,10.83,4.59,13.58,13.58,0,0,1,2.69,2.1,5.35,5.35,0,0,1,1.68,3.88,5.19,5.19,0,0,1-1.8,3.41,12.51,12.51,0,0,1-2.57,1.78A46.5,46.5,0,0,1,462,161.62a171.62,171.62,0,0,1-21.53,3.24c-7.2.67-14.43,1-21.69,1.06-3.62,0-7.26-.09-10.89-.3s-7.19-.49-10.77-.77c-14.32-1.12-28.6-2.67-42.81-4.79a337.22,337.22,0,0,1-42.1-8.77A136,136,0,0,1,292.06,144a58.15,58.15,0,0,1-9.19-5.32A21.36,21.36,0,0,1,276,131Z" transform="translate(-26.63 -1.22)"/><path d="M262.58,70.6a4.87,4.87,0,0,0-2.77-.75,10,10,0,0,0-5.18,1.47c-1.66,1-2.52,2.19-2.51,3.62a2.6,2.6,0,0,0,1.44,2.48,6.6,6.6,0,0,0,3.16.77,7.6,7.6,0,0,0,4.72-1.63,4.61,4.61,0,0,0,2.2-3.53A2.7,2.7,0,0,0,262.58,70.6Z" transform="translate(-26.63 -1.22)"/><path d="M260.78,63.31c4.06-8.13,5.56-17.44,3.06-25.94a38,38,0,0,0-6.28-11.87,40.32,40.32,0,0,0-10.23-9.39c-7.77-5.09-18.92-8-28.1-8.42a115.42,115.42,0,0,0-30.55,1.48,132.26,132.26,0,0,0-29.16,8.36,136.24,136.24,0,0,0-25.91,13.68,124.4,124.4,0,0,0-11.25,8.37A103.56,103.56,0,0,0,112.64,49a83.8,83.8,0,0,0-8,10.47,73.84,73.84,0,0,0-5.8,11.42,77.86,77.86,0,0,0-5.34,24.75,62.32,62.32,0,0,0,.55,12.47,52.27,52.27,0,0,0,3.27,12A49.78,49.78,0,0,0,103.42,131a48,48,0,0,0,8.81,9c6.7,5.35,14.86,9,23.36,11.52A119.63,119.63,0,0,0,162,155.7a171.29,171.29,0,0,0,27-.83,167.43,167.43,0,0,0,26.66-4.93A130.28,130.28,0,0,0,241,140l.28.49c-15.77,9.26-34,14.42-52,17.31a174.8,174.8,0,0,1-27.48,2.17,125.19,125.19,0,0,1-27.75-3.06,75,75,0,0,1-26.47-11,58.4,58.4,0,0,1-19.49-21.8A62.12,62.12,0,0,1,83,110.37,71.53,71.53,0,0,1,81,96a83.49,83.49,0,0,1,.78-14.46,81.11,81.11,0,0,1,3.48-14.29A74.41,74.41,0,0,1,100.81,41a90.29,90.29,0,0,1,25-19.71A137.14,137.14,0,0,1,155.6,8.78c5.21-1.55,10.47-2.89,15.79-4s10.68-2,16.11-2.57a122.7,122.7,0,0,1,32.6.14c9.92,1,21.83,4.84,29.89,10.86A42.69,42.69,0,0,1,260.33,24a39.46,39.46,0,0,1,5.72,12.92c2.08,9.15-.13,18.6-4.72,26.62Z" transform="translate(-26.63 -1.22)"/><path d="M430.77,113.66A10.64,10.64,0,0,1,427.1,117a11.94,11.94,0,0,1-4.19,1.41,12.44,12.44,0,0,1-3.51,0,6.11,6.11,0,0,1-2.79-1.19,54.14,54.14,0,0,0,5.73-7.07,18.66,18.66,0,0,0,3.15-7.06,8.09,8.09,0,0,0-.72-5.27c-.81-1.55-2.57-2.58-5.29-3a9.41,9.41,0,0,0-6.06.72,10.35,10.35,0,0,0-3.95,3.64,12.1,12.1,0,0,0-1.78,4.53,17.93,17.93,0,0,0,.25,7.35,15.09,15.09,0,0,0,3.42,6.23,32,32,0,0,1-5.7,3.86,8.22,8.22,0,0,1-4.77,1.21,2.76,2.76,0,0,1-2.26-1.52,5.92,5.92,0,0,1-.26-3.32,16.22,16.22,0,0,1,1.22-4,33,33,0,0,1,2.3-4.28,35.47,35.47,0,0,1,2.84-3.87,15.12,15.12,0,0,1,2.73-2.66,2.92,2.92,0,0,0-1.12-.78,5.51,5.51,0,0,0-1.35-.44,6.66,6.66,0,0,0-4.36,1,16.32,16.32,0,0,0-4.25,3.63,25.46,25.46,0,0,0-3.37,5.14.46.46,0,0,0-.07.14c-.65.8-1.33,1.57-2,2.31a30.14,30.14,0,0,1-5.51,4.71,7.86,7.86,0,0,1-5.23,1.47,3.44,3.44,0,0,1-2.76-1.94,8.63,8.63,0,0,1-.47-5,27.63,27.63,0,0,1,.85-4c.41-1.47.84-2.91,1.3-4.38a51.19,51.19,0,0,0,9.24-6.5,103.77,103.77,0,0,0,8.41-8.24,99.74,99.74,0,0,0,7-8.66,67.65,67.65,0,0,0,5-7.94,20.6,20.6,0,0,0,2.29-6,10,10,0,0,0,0-3,9.54,9.54,0,0,0-.92-3,2.52,2.52,0,0,0-1.87-1.47c-1.19-.18-2.95.56-5.28,2.25a55.47,55.47,0,0,0-7.7,7,125.36,125.36,0,0,0-8.52,10.26,140,140,0,0,0-8,11.79,96.43,96.43,0,0,0-6.1,11.78c-.57,1.35-1.08,2.65-1.5,3.89a38.54,38.54,0,0,1-5.27,5.1,32.81,32.81,0,0,1-8.13,4.81,17.14,17.14,0,0,1-8.2,1.31,8.51,8.51,0,0,1-3.87-1.18,5.5,5.5,0,0,1-2-2.22,7.76,7.76,0,0,1-.72-2.5,11.1,11.1,0,0,1-.05-1.94,9.1,9.1,0,0,1,.22-1.42c.09-.35.2-.71.3-1.06a35.33,35.33,0,0,0,8.6-1,36,36,0,0,0,8.12-3,22.33,22.33,0,0,0,6.24-4.68,10.74,10.74,0,0,0,2.91-6.11c.27-2.31-.28-3.93-1.65-4.88a9.71,9.71,0,0,0-4.48-1.67,17.91,17.91,0,0,0-9.06,1.51A34.4,34.4,0,0,0,338.86,101a21.13,21.13,0,0,0-2.43,5.72c-.59.64-1.19,1.26-1.81,1.84a27,27,0,0,1-6.14,4.5,9.87,9.87,0,0,1-4.89,1.34,2.3,2.3,0,0,1-2.1-1.15,4.58,4.58,0,0,1-.4-2.36,16.81,16.81,0,0,1,1.24-4.94,52.11,52.11,0,0,1,2.55-5.47c1-1.8,1.81-3.33,2.52-4.6a12.8,12.8,0,0,0,1.09-2.15,1.67,1.67,0,0,0-.91-1.6,9.22,9.22,0,0,0-2.26-1,17.22,17.22,0,0,0-2.05-.55c-.73,1.27-1.69,2.83-2.84,4.66S318,99,316.67,101a69.23,69.23,0,0,1-4.12,5.59,26.63,26.63,0,0,1-4.12,4.12,5.54,5.54,0,0,1-3.59,1.46,2.22,2.22,0,0,1-2.07-1.27,6.94,6.94,0,0,1-.62-2.59,17,17,0,0,1,0-1.85,20.09,20.09,0,0,1,1.45-6.25,53.4,53.4,0,0,1,3-6.36,30.44,30.44,0,0,1,2.8-4.33,8.69,8.69,0,0,0-2.19-1.65,5.3,5.3,0,0,0-2-.74c-.76,0-1.7.64-2.76,2a28.3,28.3,0,0,0-3.12,5.28,52,52,0,0,0-2.33,5.9v0c-.5.71-1.1,1.47-1.76,2.24a36.63,36.63,0,0,1-4.34,4.17A26,26,0,0,1,286,110a10,10,0,0,1-4.77,1.21,3.55,3.55,0,0,1-1.8-.51c-.5-.3-.72-.94-.7-1.91a9.42,9.42,0,0,1,1.34-4.08c.87-1.58,1.74-3.27,2.63-5a12.73,12.73,0,0,0,1.41-5.34,7,7,0,0,0-1.4-4.75,15.73,15.73,0,0,0-3.44-3.23q-2-1.36-3.54-2.34c-1.05-.65-1.59-1.33-1.57-2a11.77,11.77,0,0,1,.61-1.65,5.48,5.48,0,0,0,.54-1.65,5,5,0,0,0-.4-1.57,1.6,1.6,0,0,0-1.5-1.16c-.86,0-1.83.64-2.94,1.93a6.75,6.75,0,0,0-1.69,4.36,3.08,3.08,0,0,0,.94,2.35,93.72,93.72,0,0,1-4.38,9.76c-1.52,2.87-2.74,5.1-3.65,6.65l.1.18A29.13,29.13,0,0,1,256,108c-2.49,2-4.82,3-7,3a4.92,4.92,0,0,1-3.33-1c-.75-.64-1.14-2-1.16-3.94A15.59,15.59,0,0,1,246,99.76a42.48,42.48,0,0,1,3.46-6.39c1.34-2,2.51-3.84,3.52-5.42a7.79,7.79,0,0,0,1.51-3.55,2.19,2.19,0,0,0-.78-1.79,3,3,0,0,0-1.95-.63,6.16,6.16,0,0,0-4.14,1.94,22.23,22.23,0,0,0-3.88,5,43.44,43.44,0,0,0-3.17,6.54,45.28,45.28,0,0,0-2.05,6.63,22.26,22.26,0,0,0-.69,5.21,8.26,8.26,0,0,0,2.07,5.58c1.34,1.49,3.32,2.23,6,2.21a17.09,17.09,0,0,0,10.91-4.32,28.05,28.05,0,0,0,6.86-8.78c.95-1.53,2.11-3.5,3.48-5.93,1.73-3.08,3.39-6.31,4.94-9.7a18.84,18.84,0,0,1,3.4,2.46,4.68,4.68,0,0,1,1.5,3.75,11.86,11.86,0,0,1-1.51,5c-1,1.84-1.92,3.75-2.85,5.68a13,13,0,0,0-1.44,5.39,5.61,5.61,0,0,0,2,4.62,8.54,8.54,0,0,0,5.45,1.82,16.41,16.41,0,0,0,8.28-2.11,32.38,32.38,0,0,0,7.61-5.78c.4-.4.78-.81,1.15-1.21a4.65,4.65,0,0,0-.08.82,10.68,10.68,0,0,0,1.75,6.53,6.26,6.26,0,0,0,5.1,3,7.66,7.66,0,0,0,4.56-1.29,21.79,21.79,0,0,0,4.3-3.64,47.76,47.76,0,0,0,3.86-4.76,12.23,12.23,0,0,0-.23,1.33,13.49,13.49,0,0,0-.12,1.35,12.72,12.72,0,0,0,.27,3.7,5.66,5.66,0,0,0,1.76,3,6.45,6.45,0,0,0,4,1.4,14.7,14.7,0,0,0,7.37-1.62,28.15,28.15,0,0,0,7.48-5.37c.08-.08.19-.19.28-.3a10.2,10.2,0,0,0,2.53,6.88c1.89,2.19,4.78,3.49,8.73,3.88a23.33,23.33,0,0,0,10-1.24,32.18,32.18,0,0,0,9.39-5.21,30.42,30.42,0,0,0,3.37-3.07c-.05.41-.12.83-.17,1.22a12.13,12.13,0,0,0,.95,6.8c.94,2,2.83,3.15,5.7,3.52,3.57.46,7.13-.6,10.75-3.18a37.22,37.22,0,0,0,4.17-3.5,3.54,3.54,0,0,0-.08.45,10.75,10.75,0,0,0,.77,6c.81,1.83,2.6,3,5.35,3.37a14.74,14.74,0,0,0,8.41-1.44,36.1,36.1,0,0,0,8.21-5.2,10.44,10.44,0,0,0,2.15,1,14,14,0,0,0,2.4.64,13.54,13.54,0,0,0,7-.83,13.73,13.73,0,0,0,6.57-5.32ZM386.39,90.5c2-3.17,4.07-6.19,6.19-9s4.16-5.34,6.1-7.47a54.91,54.91,0,0,1,5.09-5c1.42-1.22,2.4-1.79,2.92-1.71a1,1,0,0,1,.12.66,18.73,18.73,0,0,1-1.93,4.66,62,62,0,0,1-4.08,6.46c-1.67,2.37-3.57,4.81-5.67,7.29s-4.34,4.9-6.71,7.27a63.38,63.38,0,0,1-7.3,6.3A98.61,98.61,0,0,1,386.39,90.5ZM348,99.22a31.44,31.44,0,0,1,4.72-5,25.92,25.92,0,0,1,5.25-3.52,8.94,8.94,0,0,1,4.94-1,1.68,1.68,0,0,1,1.31.6,2.07,2.07,0,0,1,.24,1.47A8.46,8.46,0,0,1,362,96.56a23.08,23.08,0,0,1-5.23,4.08,32.78,32.78,0,0,1-6.4,2.85,26.74,26.74,0,0,1-5.8,1.3A31.2,31.2,0,0,1,348,99.22Zm66,15.72a10.67,10.67,0,0,1-1.45-4.57,18,18,0,0,1,.06-4.84,9.75,9.75,0,0,1,2.93-5.84c1.53-1.4,3-2,4.25-1.79a2.35,2.35,0,0,1,1.79,1.35,5.76,5.76,0,0,1,.16,3.36,16.71,16.71,0,0,1-2.69,6.31A33.88,33.88,0,0,1,414,114.94Z" transform="translate(-26.63 -1.22)"/></g></g></svg>